:SAMPLES-PER-SECOND 30
:FULLY-SPECIFIED
:DEGREES
694
root  15.4506 35.3211 80.0062 7.53529 62.8935 2.00516
LeftUpLeg  -10.9063 5.8728 -2.33834
LeftLeg  11.8922 -2.34946 -0.340275
LeftFoot  1.23626 0.00155508 -0.0558951
LeftToes  -12.647 6.91067e-007 1.07128e-007
Spine  1.99884 1.30143 0.0103266
Spine1  3.85375 2.53724 0.151873
RightShoulder  0.0521973 6.85805 6.67574
RightArm  -32.4807 -15.6183 74.3531
RightForeArm  29.6543 13.9685 2.50959
RightHand  0.623219 -9.29492 -7.28002
LeftShoulder1  0.0299679 0.177518 -8.65694
LeftArm  -13.1261 7.5644 -72.1303
LeftForeArm  25.4418 -21.5129 -3.97852
LeftHand  0.287702 6.17191 4.95714
HEad  -18.7398 45.7417 -16.0249
RightUpLeg  -13.6883 -5.26418 -6.70393
RightLeg  14.0673 15.7766 2.85773
RightFoot  3.51381 -0.0238979 1.01207
RightToes  -34.8377 -0.178613 -0.283452
695
root  15.5681 35.3335 80.2549 7.56074 64.1305 1.89333
LeftUpLeg  -10.7351 4.89221 -1.91585
LeftLeg  11.8978 -2.50741 -0.363295
LeftFoot  1.22137 0.000841447 -0.0602381
LeftToes  -13.207 6.91067e-007 1.07128e-007
Spine  1.90258 1.13582 0.179092
Spine1  3.65883 2.20457 0.463592
RightShoulder  0.0592285 6.80046 7.01583
RightArm  -32.2738 -16.1877 73.6171
RightForeArm  30.3481 13.6899 2.45719
RightHand  0.57381 -9.16568 -6.77456
LeftShoulder1  0.0303861 -0.0645897 -8.49575
LeftArm  -12.5385 8.74841 -73.0092
LeftForeArm  25.3696 -20.1007 -3.69327
LeftHand  0.283148 6.53958 4.57828
HEad  -18.4272 45.2851 -15.4004
RightUpLeg  -13.0223 -5.04029 -6.41756
RightLeg  13.7431 14.4228 2.53483
RightFoot  3.01735 -0.0134824 0.79309
RightToes  -34.2398 -0.177355 -0.28217
696
root  15.6712 35.3318 80.4796 7.10448 65.1828 1.30252
LeftUpLeg  -10.8762 4.46561 -1.31793
LeftLeg  12.5791 -3.08267 -0.483799
LeftFoot  0.826284 -0.000604682 -0.0536202
LeftToes  -13.6943 6.91067e-007 1.07128e-007
Spine  1.84519 0.980784 0.394822
Spine1  3.53337 1.89547 0.866745
RightShoulder  0.0697794 6.74155 7.36407
RightArm  -32.574 -16.3499 72.7987
RightForeArm  30.6204 13.3753 2.39847
RightHand  0.528861 -9.22913 -6.17085
LeftShoulder1  0.0307221 -0.344443 -8.54407
LeftArm  -11.3022 10.0556 -73.5304
LeftForeArm  25.7257 -18.8914 -3.45312
LeftHand  0.233073 6.62579 3.65104
HEad  -18.2697 45.1642 -14.8495
RightUpLeg  -12.098 -3.87844 -5.99472
RightLeg  12.7166 12.4083 1.96037
RightFoot  2.90975 -0.00704729 0.654865
RightToes  -34.2348 -0.176025 -0.281074
697
root  15.76 35.3243 80.68 6.63795 66.0981 0.585294
LeftUpLeg  -11.1351 4.31947 -0.721469
LeftLeg  13.1922 -3.83118 -0.642862
LeftFoot  0.441549 -0.0024499 -0.0411081
LeftToes  -14.1693 6.91067e-007 1.07128e-007
Spine  1.75046 0.825368 0.603014
Spine1  3.32866 1.59026 1.25345
RightShoulder  0.0809378 6.73275 7.5775
RightArm  -33.4088 -16.2895 72.1587
RightForeArm  30.8785 13.0262 2.33352
RightHand  0.538195 -9.3071 -6.2302
LeftShoulder1  0.0309935 -0.529287 -8.7563
LeftArm  -9.70599 11.4951 -73.7789
LeftForeArm  26.5615 -18.0922 -3.29622
LeftHand  0.163687 6.53795 2.49267
HEad  -17.9825 45.3041 -14.2306
RightUpLeg  -11.2233 -3.53242 -5.50917
RightLeg  11.4081 11.3663 1.53485
RightFoot  2.9966 -0.00512353 0.616329
RightToes  -34.2865 -0.174628 -0.280071
698
root  15.8309 35.3079 80.8454 6.80613 66.6383 0.513523
LeftUpLeg  -11.2579 4.2123 -0.459623
LeftLeg  13.3548 -4.24815 -0.724937
LeftFoot  0.235024 -0.00421275 -0.0300694
LeftToes  -14.7301 6.91067e-007 1.07128e-007
Spine  1.62179 0.771425 0.685164
Spine1  3.06134 1.49709 1.39119
RightShoulder  0.0874599 6.66436 7.70003
RightArm  -34.1917 -16.134 71.7135
RightForeArm  30.9192 12.8108 2.29362
RightHand  0.587703 -9.31294 -6.83126
LeftShoulder1  0.0312176 -0.634031 -8.97575
LeftArm  -8.28962 13.0932 -73.8292
LeftForeArm  27.1314 -17.9236 -3.26315
LeftHand  0.0843989 6.54939 1.10388
HEad  -17.553 45.47 -13.5859
RightUpLeg  -10.7269 -4.42362 -5.23777
RightLeg  10.5809 11.751 1.41505
RightFoot  2.89464 -0.00494059 0.617577
RightToes  -34.4916 -0.173167 -0.27907
699
root  15.8631 35.2947 80.9802 6.9405 66.7072 0.452299
LeftUpLeg  -11.3504 4.34204 -0.241242
LeftLeg  13.4447 -4.44397 -0.765394
LeftFoot  0.106758 -0.00582367 -0.0214706
LeftToes  -15.2891 6.91067e-007 1.07128e-007
Spine  1.53459 0.858904 0.731343
Spine1  2.8836 1.69479 1.45298
RightShoulder  0.0925731 6.62045 7.84805
RightArm  -34.889 -15.7813 71.2641
RightForeArm  30.7189 12.7702 2.28624
RightHand  0.634506 -9.30115 -7.41291
LeftShoulder1  0.0314123 -0.674396 -9.2013
LeftArm  -7.60075 14.5897 -73.7882
LeftForeArm  26.5742 -18.036 -3.28524
LeftHand  0.00223966 6.85459 -0.332222
HEad  -17.3046 45.6113 -13.1611
RightUpLeg  -10.5714 -5.72873 -4.94665
RightLeg  10.1991 12.9136 1.46648
RightFoot  2.74959 -0.00653274 0.647791
RightToes  -34.0918 -0.171644 -0.277981
700
root  15.8641 35.293 81.085 6.94023 66.3552 0.369249
LeftUpLeg  -11.3462 4.59947 -0.0532879
LeftLeg  13.5083 -4.36055 -0.756069
LeftFoot  0.0382283 -0.00707659 -0.0183994
LeftToes  -15.7039 6.91067e-007 1.07128e-007
Spine  1.53041 1.04034 0.754067
Spine1  2.88003 2.0842 1.46805
RightShoulder  0.0933352 6.65186 7.92767
RightArm  -35.2177 -15.2094 70.8494
RightForeArm  30.2515 12.9285 2.31581
RightHand  0.65639 -9.38935 -7.60481
LeftShoulder1  0.031595 -0.49594 -9.31991
LeftArm  -8.09441 15.7585 -73.8476
LeftForeArm  24.0524 -18.1265 -3.30359
LeftHand  0.000657068 7.78308 -0.359969
HEad  -17.4269 45.8202 -13.0121
RightUpLeg  -10.6917 -5.93459 -4.7181
RightLeg  10.3338 13.3969 1.55202
RightFoot  2.56474 -0.00564596 0.629591
RightToes  -33.6798 -0.170064 -0.27671
701
root  15.8641 35.3034 81.1721 6.85704 65.941 0.292534
LeftUpLeg  -11.1455 4.59322 0.114918
LeftLeg  13.3281 -3.96385 -0.674709
LeftFoot  0.109947 -0.00819515 -0.0172663
LeftToes  -15.9116 6.91067e-007 1.07128e-007
Spine  1.57592 1.21762 0.766266
Spine1  2.98054 2.46204 1.46954
RightShoulder  0.092138 6.70686 7.87121
RightArm  -35.0921 -14.5499 70.5399
RightForeArm  29.6303 13.2518 2.37611
RightHand  0.646853 -9.45024 -7.43864
LeftShoulder1  0.0317832 -0.36971 -9.34964
LeftArm  -10.0377 16.6984 -73.9122
LeftForeArm  20.8819 -18.2386 -3.32579
LeftHand  0.0772466 7.82164 0.759287
HEad  -17.5571 45.9405 -12.9309
RightUpLeg  -10.8722 -5.54787 -4.56769
RightLeg  10.7474 13.416 1.65147
RightFoot  2.35584 -0.00420038 0.581658
RightToes  -33.4344 -0.168272 -0.275113
702
root  15.8526 35.3134 81.2493 6.76463 65.9027 0.216271
LeftUpLeg  -10.9975 4.40809 0.286496
LeftLeg  13.1564 -3.74901 -0.626716
LeftFoot  0.205468 -0.00920232 -0.0175992
LeftToes  -16.121 6.91067e-007 1.07128e-007
Spine  1.6137 1.25235 0.776412
Spine1  3.06158 2.55046 1.47121
RightShoulder  0.0902794 6.70736 7.73741
RightArm  -34.445 -13.8611 70.3823
RightForeArm  29.0452 13.6703 2.45427
RightHand  0.636633 -9.47723 -7.29373
LeftShoulder1  0.0319947 -0.296768 -9.22744
LeftArm  -12.1727 17.2819 -73.9956
LeftForeArm  20.7047 -18.2109 -3.32039
LeftHand  0.0993987 7.44171 1.15733
HEad  -17.405 46.0467 -12.6179
RightUpLeg  -10.837 -5.27107 -4.42147
RightLeg  10.7969 13.1977 1.63651
RightFoot  2.25444 -0.00296415 0.548969
RightToes  -33.0855 -0.166476 -0.273487
703
root  15.8312 35.3131 81.3176 6.65512 66.0942 0.0908436
LeftUpLeg  -11.0038 4.36793 0.469588
LeftLeg  13.1519 -3.8954 -0.650773
LeftFoot  0.221025 -0.0101211 -0.0189263
LeftToes  -16.4086 6.91067e-007 1.07128e-007
Spine  1.64294 1.2291 0.79178
Spine1  3.12018 2.5152 1.49466
RightShoulder  0.0890849 6.5643 7.63059
RightArm  -33.584 -13.1726 70.2801
RightForeArm  28.6337 14.186 2.5508
RightHand  0.622682 -9.39274 -7.19377
LeftShoulder1  0.0322469 -0.410115 -9.1711
LeftArm  -12.728 17.437 -73.684
LeftForeArm  21.1291 -18.0572 -3.2904
LeftHand  0.0874794 7.43507 0.975453
HEad  -16.947 46.08 -12.1555
RightUpLeg  -10.7252 -5.17814 -4.24533
RightLeg  10.6414 12.9165 1.56695
RightFoot  2.23475 -0.0026142 0.533703
RightToes  -33.0579 -0.164613 -0.271788
